#VRML V2.0 utf8
# Generated by VRML 2.0 driver of GEANT4


#---------- CAMERA
Viewpoint {
	position 0 0 519.615
}

#---------- SOLID: worldPhys:0
	Shape {
		appearance Appearance {
			material Material {
				diffuseColor 1 1 1
				transparency 0.7
			}
		}
		geometry IndexedFaceSet {
			coord Coordinate {
				point [
					-150 -150 -150,
					150 -150 -150,
					150 150 -150,
					-150 150 -150,
					-150 -150 150,
					150 -150 150,
					150 150 150,
					-150 150 150,
				]
			}
			coordIndex [
				0, 3, 2, 1, -1,
				4, 7, 3, 0, -1,
				7, 6, 2, 3, -1,
				6, 5, 1, 2, -1,
				5, 4, 0, 1, -1,
				4, 5, 6, 7, -1,
			]
			solid FALSE
		}
	}
#---------- SOLID: samplePhys:1
	Shape {
		appearance Appearance {
			material Material {
				diffuseColor 1 1 1
				transparency 0.7
			}
		}
		geometry IndexedFaceSet {
			coord Coordinate {
				point [
					-2.5 -2.5 -0.0025,
					2.5 -2.5 -0.0025,
					2.5 2.5 -0.0025,
					-2.5 2.5 -0.0025,
					-2.5 -2.5 0.0025,
					2.5 -2.5 0.0025,
					2.5 2.5 0.0025,
					-2.5 2.5 0.0025,
				]
			}
			coordIndex [
				0, 3, 2, 1, -1,
				4, 7, 3, 0, -1,
				7, 6, 2, 3, -1,
				6, 5, 1, 2, -1,
				5, 4, 0, 1, -1,
				4, 5, 6, 7, -1,
			]
			solid FALSE
		}
	}
#---------- SOLID: detectorPhys:2
	Shape {
		appearance Appearance {
			material Material {
				diffuseColor 1 1 1
				transparency 0.7
			}
		}
		geometry IndexedFaceSet {
			coord Coordinate {
				point [
					11.8539 -2.23607 15.0162,
					15.0162 -2.23607 11.8539,
					15.0162 2.23607 11.8539,
					11.8539 2.23607 15.0162,
					13.2681 -2.23607 16.4304,
					16.4304 -2.23607 13.2681,
					16.4304 2.23607 13.2681,
					13.2681 2.23607 16.4304,
				]
			}
			coordIndex [
				0, 3, 2, 1, -1,
				4, 7, 3, 0, -1,
				7, 6, 2, 3, -1,
				6, 5, 1, 2, -1,
				5, 4, 0, 1, -1,
				4, 5, 6, 7, -1,
			]
			solid FALSE
		}
	}
#---------- SOLID: Axes
	Shape {
		appearance Appearance {
			material Material {
				diffuseColor 1 1 1
				transparency 0.7
			}
		}
		geometry IndexedFaceSet {
			coord Coordinate {
				point [
					28.5 0 -0.166667,
					28.5 0.144338 -0.0833333,
					28.5 0.144338 0.0833333,
					28.5 2.04108e-17 0.166667,
					28.5 -0.144338 0.0833333,
					28.5 -0.144338 -0.0833333,
					0 0 -0.166667,
					0 0.144338 -0.0833333,
					0 0.144338 0.0833333,
					0 2.04108e-17 0.166667,
					0 -0.144338 0.0833333,
					0 -0.144338 -0.0833333,
					28.5 0 8.26637e-16,
					0 0 -9.18485e-16,
				]
			}
			coordIndex [
				0, 6, 7, 1, -1,
				1, 7, 8, 2, -1,
				2, 8, 9, 3, -1,
				3, 9, 10, 4, -1,
				4, 10, 11, 5, -1,
				5, 11, 6, 0, -1,
				12, 0, 1, -1,
				12, 1, 2, -1,
				12, 2, 3, -1,
				12, 3, 4, -1,
				12, 4, 5, -1,
				12, 5, 0, -1,
				6, 13, 7, -1,
				7, 13, 8, -1,
				8, 13, 9, -1,
				9, 13, 10, -1,
				10, 13, 11, -1,
				11, 13, 6, -1,
			]
			solid FALSE
		}
	}
#---------- SOLID: Axes
	Shape {
		appearance Appearance {
			material Material {
				diffuseColor 1 1 1
				transparency 0.7
			}
		}
		geometry IndexedFaceSet {
			coord Coordinate {
				point [
					30 0 9.18485e-16,
					28.5 0.5 8.26637e-16,
					28.5 -0.25 -0.433013,
					28.5 -0.25 0.433013,
				]
			}
			coordIndex [
				0, 2, 1, -1,
				0, 3, 2, -1,
				0, 1, 3, -1,
				1, 2, 3, -1,
			]
			solid FALSE
		}
	}
#---------- SOLID: Axes
	Shape {
		appearance Appearance {
			material Material {
				diffuseColor 1 1 1
				transparency 0.7
			}
		}
		geometry IndexedFaceSet {
			coord Coordinate {
				point [
					8.26637e-16 28.5 -0.166667,
					-0.144338 28.5 -0.0833333,
					-0.144338 28.5 0.0833333,
					8.06226e-16 28.5 0.166667,
					0.144338 28.5 0.0833333,
					0.144338 28.5 -0.0833333,
					-9.18485e-16 0 -0.166667,
					-0.144338 0 -0.0833333,
					-0.144338 0 0.0833333,
					-9.38896e-16 0 0.166667,
					0.144338 0 0.0833333,
					0.144338 0 -0.0833333,
					8.26637e-16 28.5 8.26637e-16,
					-9.18485e-16 0 -9.18485e-16,
				]
			}
			coordIndex [
				0, 6, 7, 1, -1,
				1, 7, 8, 2, -1,
				2, 8, 9, 3, -1,
				3, 9, 10, 4, -1,
				4, 10, 11, 5, -1,
				5, 11, 6, 0, -1,
				12, 0, 1, -1,
				12, 1, 2, -1,
				12, 2, 3, -1,
				12, 3, 4, -1,
				12, 4, 5, -1,
				12, 5, 0, -1,
				6, 13, 7, -1,
				7, 13, 8, -1,
				8, 13, 9, -1,
				9, 13, 10, -1,
				10, 13, 11, -1,
				11, 13, 6, -1,
			]
			solid FALSE
		}
	}
#---------- SOLID: Axes
	Shape {
		appearance Appearance {
			material Material {
				diffuseColor 1 1 1
				transparency 0.7
			}
		}
		geometry IndexedFaceSet {
			coord Coordinate {
				point [
					9.18485e-16 30 9.18485e-16,
					-0.5 28.5 8.26637e-16,
					0.25 28.5 -0.433013,
					0.25 28.5 0.433013,
				]
			}
			coordIndex [
				0, 2, 1, -1,
				0, 3, 2, -1,
				0, 1, 3, -1,
				1, 2, 3, -1,
			]
			solid FALSE
		}
	}
#---------- SOLID: Axes
	Shape {
		appearance Appearance {
			material Material {
				diffuseColor 1 1 1
				transparency 0.7
			}
		}
		geometry IndexedFaceSet {
			coord Coordinate {
				point [
					0.166667 0 28.5,
					0.0833333 0.144338 28.5,
					-0.0833333 0.144338 28.5,
					-0.166667 2.04108e-17 28.5,
					-0.0833333 -0.144338 28.5,
					0.0833333 -0.144338 28.5,
					0.166667 0 0,
					0.0833333 0.144338 0,
					-0.0833333 0.144338 0,
					-0.166667 2.04108e-17 0,
					-0.0833333 -0.144338 0,
					0.0833333 -0.144338 0,
					0 0 28.5,
					0 0 0,
				]
			}
			coordIndex [
				0, 6, 7, 1, -1,
				1, 7, 8, 2, -1,
				2, 8, 9, 3, -1,
				3, 9, 10, 4, -1,
				4, 10, 11, 5, -1,
				5, 11, 6, 0, -1,
				12, 0, 1, -1,
				12, 1, 2, -1,
				12, 2, 3, -1,
				12, 3, 4, -1,
				12, 4, 5, -1,
				12, 5, 0, -1,
				6, 13, 7, -1,
				7, 13, 8, -1,
				8, 13, 9, -1,
				9, 13, 10, -1,
				10, 13, 11, -1,
				11, 13, 6, -1,
			]
			solid FALSE
		}
	}
#---------- SOLID: Axes
	Shape {
		appearance Appearance {
			material Material {
				diffuseColor 1 1 1
				transparency 0.7
			}
		}
		geometry IndexedFaceSet {
			coord Coordinate {
				point [
					0 0 30,
					0 0.5 28.5,
					0.433013 -0.25 28.5,
					-0.433013 -0.25 28.5,
				]
			}
			coordIndex [
				0, 2, 1, -1,
				0, 3, 2, -1,
				0, 1, 3, -1,
				1, 2, 3, -1,
			]
			solid FALSE
		}
	}
#---------- POLYLINE
Shape {
	appearance Appearance {
		material Material {
			diffuseColor 0 1 0
			emissiveColor 0 1 0
		}
	}
	geometry IndexedLineSet {
		coord Coordinate {
			point [
				7.07107 0 7.07107,
				0.0025 0 0.0025,
				-0.0025 0 -0.0025,
				-150 0 -150,
			]
		}
		coordIndex [
			0, 1, 2, 3, -1
		]
	}
}
#---------- POLYLINE
Shape {
	appearance Appearance {
		material Material {
			diffuseColor 0 1 0
			emissiveColor 0 1 0
		}
	}
	geometry IndexedLineSet {
		coord Coordinate {
			point [
				7.07107 0 7.07107,
				0.0025 0 0.0025,
				-0.0025 0 -0.0025,
				-150 0 -150,
			]
		}
		coordIndex [
			0, 1, 2, 3, -1
		]
	}
}
#---------- POLYLINE
Shape {
	appearance Appearance {
		material Material {
			diffuseColor 0 1 0
			emissiveColor 0 1 0
		}
	}
	geometry IndexedLineSet {
		coord Coordinate {
			point [
				7.07107 0 7.07107,
				0.0025 0 0.0025,
				-0.0025 0 -0.0025,
				-150 0 -150,
			]
		}
		coordIndex [
			0, 1, 2, 3, -1
		]
	}
}
#---------- POLYLINE
Shape {
	appearance Appearance {
		material Material {
			diffuseColor 0 1 0
			emissiveColor 0 1 0
		}
	}
	geometry IndexedLineSet {
		coord Coordinate {
			point [
				7.07107 0 7.07107,
				0.0025 0 0.0025,
				-0.0025 0 -0.0025,
				-150 0 -150,
			]
		}
		coordIndex [
			0, 1, 2, 3, -1
		]
	}
}
#---------- POLYLINE
Shape {
	appearance Appearance {
		material Material {
			diffuseColor 0 1 0
			emissiveColor 0 1 0
		}
	}
	geometry IndexedLineSet {
		coord Coordinate {
			point [
				7.07107 0 7.07107,
				0.0025 0 0.0025,
				-0.0025 0 -0.0025,
				-150 0 -150,
			]
		}
		coordIndex [
			0, 1, 2, 3, -1
		]
	}
}
#---------- POLYLINE
Shape {
	appearance Appearance {
		material Material {
			diffuseColor 0 1 0
			emissiveColor 0 1 0
		}
	}
	geometry IndexedLineSet {
		coord Coordinate {
			point [
				7.07107 0 7.07107,
				0.0025 0 0.0025,
				-0.0025 0 -0.0025,
				-150 0 -150,
			]
		}
		coordIndex [
			0, 1, 2, 3, -1
		]
	}
}
#---------- POLYLINE
Shape {
	appearance Appearance {
		material Material {
			diffuseColor 0 1 0
			emissiveColor 0 1 0
		}
	}
	geometry IndexedLineSet {
		coord Coordinate {
			point [
				7.07107 0 7.07107,
				0.0025 0 0.0025,
				-0.0025 0 -0.0025,
				-150 0 -150,
			]
		}
		coordIndex [
			0, 1, 2, 3, -1
		]
	}
}
#---------- POLYLINE
Shape {
	appearance Appearance {
		material Material {
			diffuseColor 0 1 0
			emissiveColor 0 1 0
		}
	}
	geometry IndexedLineSet {
		coord Coordinate {
			point [
				7.07107 0 7.07107,
				0.0025 0 0.0025,
				-0.0025 0 -0.0025,
				-150 0 -150,
			]
		}
		coordIndex [
			0, 1, 2, 3, -1
		]
	}
}
#---------- POLYLINE
Shape {
	appearance Appearance {
		material Material {
			diffuseColor 0 1 0
			emissiveColor 0 1 0
		}
	}
	geometry IndexedLineSet {
		coord Coordinate {
			point [
				7.07107 0 7.07107,
				0.0025 0 0.0025,
				-0.00209087 0 -0.00209087,
			]
		}
		coordIndex [
			0, 1, 2, -1
		]
	}
}
#---------- POLYLINE
Shape {
	appearance Appearance {
		material Material {
			diffuseColor 1 0 0
			emissiveColor 1 0 0
		}
	}
	geometry IndexedLineSet {
		coord Coordinate {
			point [
				-0.00209087 0 -0.00209087,
				-0.00209101 7.31092e-08 -0.00209095,
			]
		}
		coordIndex [
			0, 1, -1
		]
	}
}
#---------- POLYLINE
Shape {
	appearance Appearance {
		material Material {
			diffuseColor 1 0 0
			emissiveColor 1 0 0
		}
	}
	geometry IndexedLineSet {
		coord Coordinate {
			point [
				-0.00209087 0 -0.00209087,
				-0.00209099 5.16098e-09 -0.00209074,
			]
		}
		coordIndex [
			0, 1, -1
		]
	}
}
#---------- POLYLINE
Shape {
	appearance Appearance {
		material Material {
			diffuseColor 1 0 0
			emissiveColor 1 0 0
		}
	}
	geometry IndexedLineSet {
		coord Coordinate {
			point [
				-0.00209087 0 -0.00209087,
				-0.00209078 -1.14396e-07 -0.00209079,
			]
		}
		coordIndex [
			0, 1, -1
		]
	}
}
#---------- POLYLINE
Shape {
	appearance Appearance {
		material Material {
			diffuseColor 1 0 0
			emissiveColor 1 0 0
		}
	}
	geometry IndexedLineSet {
		coord Coordinate {
			point [
				-0.00209087 0 -0.00209087,
				-0.00209124 -2.33437e-07 -0.00209109,
			]
		}
		coordIndex [
			0, 1, -1
		]
	}
}
#---------- POLYLINE
Shape {
	appearance Appearance {
		material Material {
			diffuseColor 1 0 0
			emissiveColor 1 0 0
		}
	}
	geometry IndexedLineSet {
		coord Coordinate {
			point [
				-0.00209087 0 -0.00209087,
				-0.00209076 3.18159e-08 -0.00209072,
			]
		}
		coordIndex [
			0, 1, -1
		]
	}
}
#---------- POLYLINE
Shape {
	appearance Appearance {
		material Material {
			diffuseColor 1 0 0
			emissiveColor 1 0 0
		}
	}
	geometry IndexedLineSet {
		coord Coordinate {
			point [
				-0.00209087 0 -0.00209087,
				-0.00209129 -1.30535e-07 -0.00209073,
			]
		}
		coordIndex [
			0, 1, -1
		]
	}
}
#---------- POLYLINE
Shape {
	appearance Appearance {
		material Material {
			diffuseColor 1 0 0
			emissiveColor 1 0 0
		}
	}
	geometry IndexedLineSet {
		coord Coordinate {
			point [
				-0.00209116 -8.98092e-08 -0.00209077,
				-0.00209116 -1.22324e-08 -0.00209062,
			]
		}
		coordIndex [
			0, 1, -1
		]
	}
}
#---------- POLYLINE
Shape {
	appearance Appearance {
		material Material {
			diffuseColor 1 0 0
			emissiveColor 1 0 0
		}
	}
	geometry IndexedLineSet {
		coord Coordinate {
			point [
				-0.00209087 0 -0.00209087,
				-0.00209083 1.62023e-08 -0.00209107,
			]
		}
		coordIndex [
			0, 1, -1
		]
	}
}
#---------- POLYLINE
Shape {
	appearance Appearance {
		material Material {
			diffuseColor 1 0 0
			emissiveColor 1 0 0
		}
	}
	geometry IndexedLineSet {
		coord Coordinate {
			point [
				-0.00209087 0 -0.00209087,
				-0.00209088 4.64557e-08 -0.00209071,
			]
		}
		coordIndex [
			0, 1, -1
		]
	}
}
#---------- POLYLINE
Shape {
	appearance Appearance {
		material Material {
			diffuseColor 1 0 0
			emissiveColor 1 0 0
		}
	}
	geometry IndexedLineSet {
		coord Coordinate {
			point [
				-0.00209087 0 -0.00209087,
				-0.00208972 -4.96151e-06 -0.00208798,
			]
		}
		coordIndex [
			0, 1, -1
		]
	}
}
#---------- POLYLINE
Shape {
	appearance Appearance {
		material Material {
			diffuseColor 1 0 0
			emissiveColor 1 0 0
		}
	}
	geometry IndexedLineSet {
		coord Coordinate {
			point [
				-0.00209072 -6.45762e-07 -0.0020905,
				-0.00209057 -5.89272e-07 -0.00209043,
			]
		}
		coordIndex [
			0, 1, -1
		]
	}
}
#---------- POLYLINE
Shape {
	appearance Appearance {
		material Material {
			diffuseColor 1 0 0
			emissiveColor 1 0 0
		}
	}
	geometry IndexedLineSet {
		coord Coordinate {
			point [
				-0.00209019 -2.96406e-06 -0.00208914,
				-0.00209019 -2.79888e-06 -0.00208909,
			]
		}
		coordIndex [
			0, 1, -1
		]
	}
}
#---------- POLYLINE
Shape {
	appearance Appearance {
		material Material {
			diffuseColor 1 0 0
			emissiveColor 1 0 0
		}
	}
	geometry IndexedLineSet {
		coord Coordinate {
			point [
				-0.00209022 -2.83023e-06 -0.00208922,
				-0.00209023 -2.6714e-06 -0.00208929,
			]
		}
		coordIndex [
			0, 1, -1
		]
	}
}
#---------- POLYLINE
Shape {
	appearance Appearance {
		material Material {
			diffuseColor 1 0 0
			emissiveColor 1 0 0
		}
	}
	geometry IndexedLineSet {
		coord Coordinate {
			point [
				-0.00209087 0 -0.00209087,
				-0.0020972 7.68265e-06 -0.00208918,
			]
		}
		coordIndex [
			0, 1, -1
		]
	}
}
#---------- POLYLINE
Shape {
	appearance Appearance {
		material Material {
			diffuseColor 1 0 0
			emissiveColor 1 0 0
		}
	}
	geometry IndexedLineSet {
		coord Coordinate {
			point [
				-0.00209379 3.53586e-06 -0.0020901,
				-0.00209373 3.59018e-06 -0.00208994,
			]
		}
		coordIndex [
			0, 1, -1
		]
	}
}
#---------- POLYLINE
Shape {
	appearance Appearance {
		material Material {
			diffuseColor 1 0 0
			emissiveColor 1 0 0
		}
	}
	geometry IndexedLineSet {
		coord Coordinate {
			point [
				-0.00209304 2.63092e-06 -0.00209029,
				-0.00209304 2.6918e-06 -0.00209046,
			]
		}
		coordIndex [
			0, 1, -1
		]
	}
}
#---------- POLYLINE
Shape {
	appearance Appearance {
		material Material {
			diffuseColor 1 0 0
			emissiveColor 1 0 0
		}
	}
	geometry IndexedLineSet {
		coord Coordinate {
			point [
				-0.00209615 6.40767e-06 -0.00208946,
				-0.00209623 6.51672e-06 -0.00208936,
			]
		}
		coordIndex [
			0, 1, -1
		]
	}
}
#---------- POLYLINE
Shape {
	appearance Appearance {
		material Material {
			diffuseColor 1 0 0
			emissiveColor 1 0 0
		}
	}
	geometry IndexedLineSet {
		coord Coordinate {
			point [
				-0.00209615 6.40767e-06 -0.00208946,
				-0.00209625 6.54877e-06 -0.00208946,
			]
		}
		coordIndex [
			0, 1, -1
		]
	}
}
#---------- POLYLINE
Shape {
	appearance Appearance {
		material Material {
			diffuseColor 1 0 0
			emissiveColor 1 0 0
		}
	}
	geometry IndexedLineSet {
		coord Coordinate {
			point [
				-0.00209284 2.38256e-06 -0.00209035,
				-0.00209281 2.49874e-06 -0.00209023,
			]
		}
		coordIndex [
			0, 1, -1
		]
	}
}
#---------- POLYLINE
Shape {
	appearance Appearance {
		material Material {
			diffuseColor 1 0 0
			emissiveColor 1 0 0
		}
	}
	geometry IndexedLineSet {
		coord Coordinate {
			point [
				-0.00209284 2.38256e-06 -0.00209035,
				-0.00209283 2.33092e-06 -0.00209019,
			]
		}
		coordIndex [
			0, 1, -1
		]
	}
}
#---------- POLYLINE
Shape {
	appearance Appearance {
		material Material {
			diffuseColor 0 1 0
			emissiveColor 0 1 0
		}
	}
	geometry IndexedLineSet {
		coord Coordinate {
			point [
				7.07107 0 7.07107,
				0.0025 0 0.0025,
				-0.0023626 0 -0.0023626,
			]
		}
		coordIndex [
			0, 1, 2, -1
		]
	}
}
#---------- POLYLINE
Shape {
	appearance Appearance {
		material Material {
			diffuseColor 1 0 0
			emissiveColor 1 0 0
		}
	}
	geometry IndexedLineSet {
		coord Coordinate {
			point [
				-0.0023626 0 -0.0023626,
				-0.00236243 -3.69488e-08 -0.0023626,
			]
		}
		coordIndex [
			0, 1, -1
		]
	}
}
#---------- POLYLINE
Shape {
	appearance Appearance {
		material Material {
			diffuseColor 1 0 0
			emissiveColor 1 0 0
		}
	}
	geometry IndexedLineSet {
		coord Coordinate {
			point [
				-0.0023626 0 -0.0023626,
				-0.00236255 -3.45623e-08 -0.00236276,
			]
		}
		coordIndex [
			0, 1, -1
		]
	}
}
#---------- POLYLINE
Shape {
	appearance Appearance {
		material Material {
			diffuseColor 1 0 0
			emissiveColor 1 0 0
		}
	}
	geometry IndexedLineSet {
		coord Coordinate {
			point [
				-0.0023626 0 -0.0023626,
				-0.00236264 -4.10978e-07 -0.00236281,
			]
		}
		coordIndex [
			0, 1, -1
		]
	}
}
#---------- POLYLINE
Shape {
	appearance Appearance {
		material Material {
			diffuseColor 1 0 0
			emissiveColor 1 0 0
		}
	}
	geometry IndexedLineSet {
		coord Coordinate {
			point [
				-0.00236261 -7.28778e-08 -0.00236264,
				-0.00236276 -1.36595e-07 -0.00236261,
			]
		}
		coordIndex [
			0, 1, -1
		]
	}
}
#---------- POLYLINE
Shape {
	appearance Appearance {
		material Material {
			diffuseColor 0 1 0
			emissiveColor 0 1 0
		}
	}
	geometry IndexedLineSet {
		coord Coordinate {
			point [
				-0.0023626 0 -0.0023626,
				0.00314115 0.00299799 0.0025,
				150 81.7089 132.526,
			]
		}
		coordIndex [
			0, 1, 2, -1
		]
	}
}
#---------- POLYLINE
Shape {
	appearance Appearance {
		material Material {
			diffuseColor 1 0 0
			emissiveColor 1 0 0
		}
	}
	geometry IndexedLineSet {
		coord Coordinate {
			point [
				-0.0023626 0 -0.0023626,
				-0.00237822 1.02973e-05 -0.00238084,
				-0.00237355 5.66561e-06 -0.00240521,
				-0.00237101 -2.03508e-06 -0.00243061,
				-0.00236914 -9.30262e-06 -0.00245563,
				-0.00236387 -8.26455e-06 -0.00247007,
				-0.0023468 -2.65254e-06 -0.00245213,
				-0.00232965 -2.46177e-06 -0.00243619,
				-0.0023165 -9.36791e-06 -0.0024211,
				-0.00230761 -5.21827e-06 -0.00240624,
				-0.0022921 -5.8564e-06 -0.00240712,
				-0.00227842 -9.12323e-06 -0.00240719,
				-0.0022677 -6.74597e-06 -0.00241459,
				-0.00225631 -3.63957e-06 -0.00241881,
				-0.0022455 -2.89711e-06 -0.00242225,
				-0.00224105 -3.62858e-06 -0.00243222,
				-0.0022393 -3.63357e-06 -0.00244295,
				-0.00223748 -7.72732e-06 -0.00245118,
				-0.00223275 -9.85824e-06 -0.00245729,
				-0.00222592 -6.33605e-06 -0.00246229,
				-0.00222451 -3.95839e-06 -0.00246404,
				-0.00222638 -1.80853e-06 -0.00246129,
				-0.00222951 -2.66097e-06 -0.0024599,
				-0.00223297 -3.98323e-06 -0.00245869,
				-0.00223654 -4.53144e-06 -0.00245802,
				-0.00224014 -5.3683e-06 -0.00245914,
				-0.00224383 -5.86645e-06 -0.00246002,
				-0.00224745 -6.52508e-06 -0.00246096,
				-0.00225044 -7.90372e-06 -0.00246157,
				-0.00225058 -7.32561e-06 -0.00245881,
				-0.0022511 -7.94105e-06 -0.0024576,
			]
		}
		coordIndex [
			0, 1, 2, 3, 4, 5, 6, 7, 8, 9, 
			10, 11, 12, 13, 14, 15, 16, 17, 18, 19, 
			20, 21, 22, 23, 24, 25, 26, 27, 28, 29, 
			30, -1
		]
	}
}
#---------- POLYLINE
Shape {
	appearance Appearance {
		material Material {
			diffuseColor 1 0 0
			emissiveColor 1 0 0
		}
	}
	geometry IndexedLineSet {
		coord Coordinate {
			point [
				-0.0022511 -7.94043e-06 -0.0024576,
				-0.00225125 -7.90342e-06 -0.00245768,
			]
		}
		coordIndex [
			0, 1, -1
		]
	}
}
#---------- POLYLINE
Shape {
	appearance Appearance {
		material Material {
			diffuseColor 1 0 0
			emissiveColor 1 0 0
		}
	}
	geometry IndexedLineSet {
		coord Coordinate {
			point [
				-0.00225109 -7.92946e-06 -0.00245762,
				-0.00225111 -8.06397e-06 -0.00245751,
			]
		}
		coordIndex [
			0, 1, -1
		]
	}
}
#---------- POLYLINE
Shape {
	appearance Appearance {
		material Material {
			diffuseColor 1 0 0
			emissiveColor 1 0 0
		}
	}
	geometry IndexedLineSet {
		coord Coordinate {
			point [
				-0.00225106 -7.89171e-06 -0.0024577,
				-0.00225091 -7.81163e-06 -0.00245769,
			]
		}
		coordIndex [
			0, 1, -1
		]
	}
}
#---------- POLYLINE
Shape {
	appearance Appearance {
		material Material {
			diffuseColor 1 0 0
			emissiveColor 1 0 0
		}
	}
	geometry IndexedLineSet {
		coord Coordinate {
			point [
				-0.00225053 -7.52562e-06 -0.00245977,
				-0.00225051 -7.57741e-06 -0.00245993,
			]
		}
		coordIndex [
			0, 1, -1
		]
	}
}
#---------- POLYLINE
Shape {
	appearance Appearance {
		material Material {
			diffuseColor 1 0 0
			emissiveColor 1 0 0
		}
	}
	geometry IndexedLineSet {
		coord Coordinate {
			point [
				-0.00223481 -8.932e-06 -0.00245463,
				-0.00223497 -8.92284e-06 -0.0024547,
			]
		}
		coordIndex [
			0, 1, -1
		]
	}
}
#---------- POLYLINE
Shape {
	appearance Appearance {
		material Material {
			diffuseColor 1 0 0
			emissiveColor 1 0 0
		}
	}
	geometry IndexedLineSet {
		coord Coordinate {
			point [
				-0.00223788 -6.83081e-06 -0.00244938,
				-0.00223795 -6.68048e-06 -0.00244942,
			]
		}
		coordIndex [
			0, 1, -1
		]
	}
}
#---------- POLYLINE
Shape {
	appearance Appearance {
		material Material {
			diffuseColor 1 0 0
			emissiveColor 1 0 0
		}
	}
	geometry IndexedLineSet {
		coord Coordinate {
			point [
				-0.00223788 -6.83081e-06 -0.00244938,
				-0.00223789 -6.69088e-06 -0.00244948,
			]
		}
		coordIndex [
			0, 1, -1
		]
	}
}
#---------- POLYLINE
Shape {
	appearance Appearance {
		material Material {
			diffuseColor 1 0 0
			emissiveColor 1 0 0
		}
	}
	geometry IndexedLineSet {
		coord Coordinate {
			point [
				-0.00224932 -3.15968e-06 -0.00242104,
				-0.00224933 -3.12352e-06 -0.00242087,
			]
		}
		coordIndex [
			0, 1, -1
		]
	}
}
#---------- POLYLINE
Shape {
	appearance Appearance {
		material Material {
			diffuseColor 1 0 0
			emissiveColor 1 0 0
		}
	}
	geometry IndexedLineSet {
		coord Coordinate {
			point [
				-0.00224932 -3.15968e-06 -0.00242104,
				-0.00224938 -3.01725e-06 -0.00242096,
			]
		}
		coordIndex [
			0, 1, -1
		]
	}
}
#---------- POLYLINE
Shape {
	appearance Appearance {
		material Material {
			diffuseColor 1 0 0
			emissiveColor 1 0 0
		}
	}
	geometry IndexedLineSet {
		coord Coordinate {
			point [
				-0.00226364 -5.63907e-06 -0.00241609,
				-0.00226362 -5.59769e-06 -0.00241593,
			]
		}
		coordIndex [
			0, 1, -1
		]
	}
}
#---------- POLYLINE
Shape {
	appearance Appearance {
		material Material {
			diffuseColor 1 0 0
			emissiveColor 1 0 0
		}
	}
	geometry IndexedLineSet {
		coord Coordinate {
			point [
				-0.00231146 -7.01845e-06 -0.00241268,
				-0.00231132 -6.93096e-06 -0.0024127,
			]
		}
		coordIndex [
			0, 1, -1
		]
	}
}
#---------- POLYLINE
Shape {
	appearance Appearance {
		material Material {
			diffuseColor 1 0 0
			emissiveColor 1 0 0
		}
	}
	geometry IndexedLineSet {
		coord Coordinate {
			point [
				-0.0023713 -1.14927e-06 -0.00242769,
				-0.00237114 -1.10704e-06 -0.00242767,
			]
		}
		coordIndex [
			0, 1, -1
		]
	}
}
#---------- POLYLINE
Shape {
	appearance Appearance {
		material Material {
			diffuseColor 1 0 0
			emissiveColor 1 0 0
		}
	}
	geometry IndexedLineSet {
		coord Coordinate {
			point [
				-0.00237171 9.88422e-08 -0.00242357,
				-0.00237158 -5.80874e-09 -0.00242353,
			]
		}
		coordIndex [
			0, 1, -1
		]
	}
}
#---------- POLYLINE
Shape {
	appearance Appearance {
		material Material {
			diffuseColor 1 0 0
			emissiveColor 1 0 0
		}
	}
	geometry IndexedLineSet {
		coord Coordinate {
			point [
				-0.00237472 6.8303e-06 -0.00239908,
				-0.00237469 6.66975e-06 -0.00239902,
			]
		}
		coordIndex [
			0, 1, -1
		]
	}
}
#End of file.
