#VRML V2.0 utf8
# Generated by VRML 2.0 driver of GEANT4


#---------- CAMERA
Viewpoint {
	position 0 0 519.615
}

#---------- SOLID: worldPhys:0
	Shape {
		appearance Appearance {
			material Material {
				diffuseColor 1 1 1
				transparency 0.7
			}
		}
		geometry IndexedFaceSet {
			coord Coordinate {
				point [
					-150 -150 -150,
					150 -150 -150,
					150 150 -150,
					-150 150 -150,
					-150 -150 150,
					150 -150 150,
					150 150 150,
					-150 150 150,
				]
			}
			coordIndex [
				0, 3, 2, 1, -1,
				4, 7, 3, 0, -1,
				7, 6, 2, 3, -1,
				6, 5, 1, 2, -1,
				5, 4, 0, 1, -1,
				4, 5, 6, 7, -1,
			]
			solid FALSE
		}
	}
#---------- SOLID: samplePhys:1
	Shape {
		appearance Appearance {
			material Material {
				diffuseColor 1 1 1
				transparency 0.7
			}
		}
		geometry IndexedFaceSet {
			coord Coordinate {
				point [
					-2.5 -2.5 -0.0025,
					2.5 -2.5 -0.0025,
					2.5 2.5 -0.0025,
					-2.5 2.5 -0.0025,
					-2.5 -2.5 0.0025,
					2.5 -2.5 0.0025,
					2.5 2.5 0.0025,
					-2.5 2.5 0.0025,
				]
			}
			coordIndex [
				0, 3, 2, 1, -1,
				4, 7, 3, 0, -1,
				7, 6, 2, 3, -1,
				6, 5, 1, 2, -1,
				5, 4, 0, 1, -1,
				4, 5, 6, 7, -1,
			]
			solid FALSE
		}
	}
#---------- SOLID: detectorPhys:2
	Shape {
		appearance Appearance {
			material Material {
				diffuseColor 1 1 1
				transparency 0.7
			}
		}
		geometry IndexedFaceSet {
			coord Coordinate {
				point [
					8.50809 -2.73861 14.4001,
					12.7039 -2.73861 10.8794,
					12.7039 2.73861 10.8794,
					8.50809 2.73861 14.4001,
					9.15088 -2.73861 15.1661,
					13.3467 -2.73861 11.6454,
					13.3467 2.73861 11.6454,
					9.15088 2.73861 15.1661,
				]
			}
			coordIndex [
				0, 3, 2, 1, -1,
				4, 7, 3, 0, -1,
				7, 6, 2, 3, -1,
				6, 5, 1, 2, -1,
				5, 4, 0, 1, -1,
				4, 5, 6, 7, -1,
			]
			solid FALSE
		}
	}
#---------- SOLID: Axes
	Shape {
		appearance Appearance {
			material Material {
				diffuseColor 1 1 1
				transparency 0.7
			}
		}
		geometry IndexedFaceSet {
			coord Coordinate {
				point [
					28.5 0 -0.166667,
					28.5 0.144338 -0.0833333,
					28.5 0.144338 0.0833333,
					28.5 2.04108e-17 0.166667,
					28.5 -0.144338 0.0833333,
					28.5 -0.144338 -0.0833333,
					0 0 -0.166667,
					0 0.144338 -0.0833333,
					0 0.144338 0.0833333,
					0 2.04108e-17 0.166667,
					0 -0.144338 0.0833333,
					0 -0.144338 -0.0833333,
					28.5 0 8.26637e-16,
					0 0 -9.18485e-16,
				]
			}
			coordIndex [
				0, 6, 7, 1, -1,
				1, 7, 8, 2, -1,
				2, 8, 9, 3, -1,
				3, 9, 10, 4, -1,
				4, 10, 11, 5, -1,
				5, 11, 6, 0, -1,
				12, 0, 1, -1,
				12, 1, 2, -1,
				12, 2, 3, -1,
				12, 3, 4, -1,
				12, 4, 5, -1,
				12, 5, 0, -1,
				6, 13, 7, -1,
				7, 13, 8, -1,
				8, 13, 9, -1,
				9, 13, 10, -1,
				10, 13, 11, -1,
				11, 13, 6, -1,
			]
			solid FALSE
		}
	}
#---------- SOLID: Axes
	Shape {
		appearance Appearance {
			material Material {
				diffuseColor 1 1 1
				transparency 0.7
			}
		}
		geometry IndexedFaceSet {
			coord Coordinate {
				point [
					30 0 9.18485e-16,
					28.5 0.5 8.26637e-16,
					28.5 -0.25 -0.433013,
					28.5 -0.25 0.433013,
				]
			}
			coordIndex [
				0, 2, 1, -1,
				0, 3, 2, -1,
				0, 1, 3, -1,
				1, 2, 3, -1,
			]
			solid FALSE
		}
	}
#---------- SOLID: Axes
	Shape {
		appearance Appearance {
			material Material {
				diffuseColor 1 1 1
				transparency 0.7
			}
		}
		geometry IndexedFaceSet {
			coord Coordinate {
				point [
					8.26637e-16 28.5 -0.166667,
					-0.144338 28.5 -0.0833333,
					-0.144338 28.5 0.0833333,
					8.06226e-16 28.5 0.166667,
					0.144338 28.5 0.0833333,
					0.144338 28.5 -0.0833333,
					-9.18485e-16 0 -0.166667,
					-0.144338 0 -0.0833333,
					-0.144338 0 0.0833333,
					-9.38896e-16 0 0.166667,
					0.144338 0 0.0833333,
					0.144338 0 -0.0833333,
					8.26637e-16 28.5 8.26637e-16,
					-9.18485e-16 0 -9.18485e-16,
				]
			}
			coordIndex [
				0, 6, 7, 1, -1,
				1, 7, 8, 2, -1,
				2, 8, 9, 3, -1,
				3, 9, 10, 4, -1,
				4, 10, 11, 5, -1,
				5, 11, 6, 0, -1,
				12, 0, 1, -1,
				12, 1, 2, -1,
				12, 2, 3, -1,
				12, 3, 4, -1,
				12, 4, 5, -1,
				12, 5, 0, -1,
				6, 13, 7, -1,
				7, 13, 8, -1,
				8, 13, 9, -1,
				9, 13, 10, -1,
				10, 13, 11, -1,
				11, 13, 6, -1,
			]
			solid FALSE
		}
	}
#---------- SOLID: Axes
	Shape {
		appearance Appearance {
			material Material {
				diffuseColor 1 1 1
				transparency 0.7
			}
		}
		geometry IndexedFaceSet {
			coord Coordinate {
				point [
					9.18485e-16 30 9.18485e-16,
					-0.5 28.5 8.26637e-16,
					0.25 28.5 -0.433013,
					0.25 28.5 0.433013,
				]
			}
			coordIndex [
				0, 2, 1, -1,
				0, 3, 2, -1,
				0, 1, 3, -1,
				1, 2, 3, -1,
			]
			solid FALSE
		}
	}
#---------- SOLID: Axes
	Shape {
		appearance Appearance {
			material Material {
				diffuseColor 1 1 1
				transparency 0.7
			}
		}
		geometry IndexedFaceSet {
			coord Coordinate {
				point [
					0.166667 0 28.5,
					0.0833333 0.144338 28.5,
					-0.0833333 0.144338 28.5,
					-0.166667 2.04108e-17 28.5,
					-0.0833333 -0.144338 28.5,
					0.0833333 -0.144338 28.5,
					0.166667 0 0,
					0.0833333 0.144338 0,
					-0.0833333 0.144338 0,
					-0.166667 2.04108e-17 0,
					-0.0833333 -0.144338 0,
					0.0833333 -0.144338 0,
					0 0 28.5,
					0 0 0,
				]
			}
			coordIndex [
				0, 6, 7, 1, -1,
				1, 7, 8, 2, -1,
				2, 8, 9, 3, -1,
				3, 9, 10, 4, -1,
				4, 10, 11, 5, -1,
				5, 11, 6, 0, -1,
				12, 0, 1, -1,
				12, 1, 2, -1,
				12, 2, 3, -1,
				12, 3, 4, -1,
				12, 4, 5, -1,
				12, 5, 0, -1,
				6, 13, 7, -1,
				7, 13, 8, -1,
				8, 13, 9, -1,
				9, 13, 10, -1,
				10, 13, 11, -1,
				11, 13, 6, -1,
			]
			solid FALSE
		}
	}
#---------- SOLID: Axes
	Shape {
		appearance Appearance {
			material Material {
				diffuseColor 1 1 1
				transparency 0.7
			}
		}
		geometry IndexedFaceSet {
			coord Coordinate {
				point [
					0 0 30,
					0 0.5 28.5,
					0.433013 -0.25 28.5,
					-0.433013 -0.25 28.5,
				]
			}
			coordIndex [
				0, 2, 1, -1,
				0, 3, 2, -1,
				0, 1, 3, -1,
				1, 2, 3, -1,
			]
			solid FALSE
		}
	}
#End of file.
